<?xml version="1.0" standalone="no"?>
<!DOCTYPE svg PUBLIC "-//W3C//DTD SVG 20010904//EN"
 "http://www.w3.org/TR/2001/REC-SVG-20010904/DTD/svg10.dtd">
<svg version="1.0" xmlns="http://www.w3.org/2000/svg"
 width="709.000000pt" height="588.000000pt" viewBox="0 0 709.000000 588.000000"
 preserveAspectRatio="xMidYMid meet">

<g transform="translate(0.000000,588.000000) scale(0.100000,-0.100000)"
fill="#000000" stroke="none">
<path d="M1970 5240 c-301 -52 -561 -187 -775 -404 -182 -184 -296 -398 -356
-666 -19 -89 -23 -133 -23 -285 0 -162 3 -191 27 -290 134 -542 519 -918 1062
-1036 146 -32 398 -32 545 -1 211 46 376 120 560 252 140 100 202 156 586 527
166 161 304 289 306 284 7 -20 375 -410 446 -475 212 -189 422 -276 667 -276
361 0 694 205 853 525 196 392 88 882 -255 1153 -203 162 -451 233 -708 204
-162 -18 -294 -69 -440 -170 -177 -122 -283 -220 -920 -852 -531 -527 -631
-620 -760 -707 -372 -250 -835 -252 -1209 -5 -218 144 -371 366 -442 642 -21
82 -29 282 -15 381 53 378 319 709 682 849 92 35 276 69 376 70 63 0 263 -33
329 -56 86 -28 214 -92 279 -139 74 -52 274 -231 282 -251 3 -8 -5 -22 -17
-32 l-23 -18 29 -12 c16 -6 61 -20 99 -31 97 -27 266 -78 298 -90 15 -6 27 -7
27 -3 0 4 -9 66 -19 137 -11 72 -25 168 -31 215 -17 122 -15 119 -63 72 -24
-23 -47 -42 -53 -42 -6 0 -26 16 -45 36 -185 195 -397 344 -596 420 -156 59
-254 76 -458 79 -104 2 -215 0 -245 -5z m3395 -803 c162 -64 260 -170 286
-311 17 -95 -25 -224 -105 -327 -34 -42 -35 -44 -19 -69 89 -133 103 -172 103
-280 0 -119 -52 -213 -159 -288 -67 -47 -89 -57 -186 -83 -191 -51 -405 9
-628 177 -152 115 -425 416 -508 561 l-23 41 84 87 c236 241 491 416 718 490
146 48 319 49 437 2z"/>
<path d="M4842 5159 c-86 -10 -243 -51 -327 -86 -233 -96 -418 -236 -780 -593
-121 -119 -264 -258 -318 -309 l-97 -93 -68 73 c-462 504 -601 610 -877 668
-130 28 -233 27 -378 -3 -395 -82 -696 -399 -747 -784 -5 -37 -7 -119 -5 -182
7 -200 74 -379 201 -538 114 -143 261 -246 434 -305 117 -40 197 -50 354 -45
156 6 247 28 377 93 185 94 270 169 934 820 308 303 597 583 643 623 279 245
483 347 747 373 477 49 931 -230 1103 -677 145 -379 65 -794 -214 -1102 -122
-136 -319 -254 -510 -309 -92 -26 -112 -28 -279 -27 -165 0 -189 2 -285 28
-57 15 -123 36 -147 47 -23 10 -46 19 -51 19 -5 0 -48 25 -97 55 -86 54 -345
269 -345 286 0 5 14 22 31 37 l31 28 -59 17 c-169 50 -244 71 -305 87 l-68 18
6 -27 c3 -14 10 -37 14 -51 5 -14 18 -70 29 -125 33 -158 51 -238 56 -243 2
-3 16 10 30 27 15 17 31 31 36 31 6 0 49 -38 97 -84 298 -288 557 -415 912
-447 561 -51 1093 245 1345 751 162 324 182 709 54 1062 -35 97 -115 251 -168
323 -305 420 -782 625 -1309 564z m-2652 -584 c119 -13 288 -88 462 -204 120
-80 328 -259 406 -350 l54 -61 -27 -45 c-57 -97 -186 -256 -310 -380 -184
-184 -334 -286 -510 -346 -101 -35 -260 -33 -361 3 -243 86 -362 297 -284 503
13 33 40 85 60 115 l38 55 -29 34 c-45 54 -96 161 -109 227 -41 211 156 426
415 454 69 7 88 6 195 -5z"/>
<path d="M5124 2277 c-3 -8 -4 -209 -2 -448 3 -481 2 -472 70 -521 31 -21 44
-23 196 -26 l162 -3 0 50 0 51 -140 0 c-137 0 -142 1 -166 25 l-24 24 2 248 3
248 163 3 162 2 0 55 0 55 -162 2 -163 3 -3 123 -3 122 -45 0 c-28 0 -47 -5
-50 -13z"/>
<path d="M530 1661 l0 -381 50 0 50 0 0 306 c0 191 4 313 10 325 10 18 24 19
275 19 251 0 265 -1 275 -19 6 -12 10 -134 10 -325 l0 -306 50 0 50 0 0 315
c0 353 -2 362 -66 411 l-37 29 -334 3 -333 3 0 -380z"/>
<path d="M1535 2033 c-34 -9 -81 -50 -99 -86 -13 -30 -16 -74 -16 -286 0 -282
3 -300 66 -347 l37 -29 283 0 c271 0 284 1 311 21 15 11 38 36 51 54 21 32 22
40 22 300 0 260 -1 268 -22 300 -13 18 -36 43 -51 54 -27 20 -42 21 -295 23
-147 1 -276 -1 -287 -4z m545 -122 c6 -12 10 -111 10 -253 0 -187 -3 -238 -14
-254 -14 -18 -29 -19 -271 -19 -242 0 -257 1 -271 19 -11 16 -14 67 -14 254 0
142 4 241 10 253 10 18 24 19 275 19 251 0 265 -1 275 -19z"/>
<path d="M2302 1712 l3 -329 27 -35 c51 -67 65 -69 367 -66 255 3 271 4 298
24 15 11 38 36 51 54 22 32 22 37 22 356 l0 324 -50 0 -50 0 0 -314 c0 -279
-2 -315 -17 -327 -13 -11 -70 -14 -270 -14 -241 0 -255 1 -269 19 -11 16 -14
78 -14 328 l0 308 -51 0 -50 0 3 -328z"/>
<path d="M3180 2035 c0 -3 93 -175 207 -381 l207 -375 60 3 61 3 207 375 c115
206 208 376 208 377 0 2 -26 3 -58 3 l-58 0 -175 -322 c-96 -177 -179 -323
-185 -325 -5 -1 -88 143 -184 320 l-175 322 -58 3 c-31 2 -57 0 -57 -3z"/>
<path d="M4303 2019 c-24 -12 -52 -37 -65 -57 -22 -36 -23 -44 -23 -302 0
-294 2 -305 67 -352 33 -23 36 -23 366 -26 l332 -3 0 50 0 51 -309 0 c-374 0
-349 -9 -353 130 l-2 95 333 3 332 2 -3 170 -3 169 -30 32 c-53 56 -70 59
-347 59 -237 0 -256 -1 -295 -21z m566 -103 c8 -9 11 -47 9 -107 l-3 -94 -280
0 -279 0 3 95 c1 52 7 101 13 108 16 19 521 17 537 -2z"/>
<path d="M5670 1985 l0 -55 318 0 c234 0 321 -3 330 -12 8 -8 12 -47 12 -110
l0 -98 -330 0 -330 0 0 -161 c0 -187 9 -212 84 -248 40 -20 59 -21 359 -21
l317 0 0 326 c0 311 -1 328 -20 360 -12 18 -40 42 -64 53 -40 20 -59 21 -359
21 l-317 0 0 -55z m658 -487 l-3 -113 -254 -3 c-319 -3 -301 -11 -301 128 l0
100 280 0 281 0 -3 -112z"/>
<path d="M5430 853 c1 -115 3 -144 12 -129 6 11 11 50 10 88 0 37 -1 95 -1
128 -1 33 -5 60 -11 60 -6 0 -10 -56 -10 -147z"/>
<path d="M5834 855 c0 -82 2 -115 3 -72 2 43 2 110 0 150 -1 40 -3 5 -3 -78z"/>
<path d="M1156 981 c-4 -5 -2 -12 3 -15 5 -4 12 -2 15 3 4 5 2 12 -3 15 -5 4
-12 2 -15 -3z"/>
<path d="M3220 976 c0 -9 5 -16 10 -16 6 0 10 4 10 9 0 6 -4 13 -10 16 -5 3
-10 -1 -10 -9z"/>
<path d="M5700 975 c0 -8 5 -15 10 -15 6 0 10 7 10 15 0 8 -4 15 -10 15 -5 0
-10 -7 -10 -15z"/>
<path d="M4361 937 c0 -10 -8 -20 -17 -24 -15 -5 -15 -7 0 -15 13 -7 16 -26
16 -88 0 -68 3 -81 19 -90 11 -5 28 -10 38 -10 11 1 6 6 -14 15 l-33 14 0 80
0 80 38 4 37 4 -37 1 c-29 2 -37 6 -41 25 -3 15 -5 17 -6 4z"/>
<path d="M2548 919 c-14 -15 -14 -18 -2 -23 10 -4 14 -25 14 -85 0 -69 3 -82
19 -91 11 -5 28 -10 38 -9 13 0 12 3 -7 10 -35 14 -40 26 -40 106 l0 72 33 4
32 4 -32 1 c-17 1 -33 8 -35 15 -2 9 -7 8 -20 -4z"/>
<path d="M1164 810 c0 -58 1 -81 3 -52 2 28 2 76 0 105 -2 28 -3 5 -3 -53z"/>
<path d="M1281 813 c-1 -57 2 -103 7 -103 4 0 5 23 4 50 -2 28 1 64 7 82 6 17
7 34 3 37 -5 3 -12 13 -15 21 -3 8 -6 -31 -6 -87z"/>
<path d="M1371 903 c45 -7 58 -31 62 -118 l3 -80 2 87 c2 80 0 88 -20 102 -12
9 -34 15 -48 15 l-25 -2 26 -4z"/>
<path d="M1550 812 c0 -56 3 -102 8 -102 4 0 5 23 4 50 -2 28 1 64 7 81 8 25
8 36 -4 52 -14 20 -15 12 -15 -81z"/>
<path d="M1647 899 c18 -5 36 -15 40 -22 4 -6 11 -48 14 -92 l6 -80 1 83 c2
70 -1 85 -18 102 -11 11 -32 20 -47 19 -28 -1 -28 -1 4 -10z"/>
<path d="M1857 903 c-24 -6 -47 -54 -47 -98 0 -27 8 -44 30 -67 26 -26 36 -30
66 -25 20 3 42 11 50 18 22 18 34 75 23 114 -15 54 -58 75 -122 58z m88 -28
c35 -34 35 -96 0 -130 -58 -59 -136 1 -119 91 12 63 75 84 119 39z"/>
<path d="M2077 848 c44 -114 56 -138 68 -138 7 0 15 8 18 18 2 9 18 54 35 100
17 45 27 82 23 82 -4 0 -13 -17 -20 -37 -38 -107 -53 -143 -60 -143 -4 0 -22
41 -40 90 -19 50 -37 90 -41 90 -4 0 3 -28 17 -62z"/>
<path d="M2376 901 c46 -11 54 -19 54 -51 0 -27 -3 -29 -42 -33 l-43 -4 44 -1
44 -2 -6 -35 c-3 -19 -1 -37 4 -40 5 -4 9 27 9 74 0 88 -9 102 -67 100 l-28
-1 31 -7z"/>
<path d="M2735 885 c-31 -30 -35 -110 -7 -145 20 -25 90 -38 118 -21 15 8 9 9
-26 5 -39 -5 -49 -2 -72 20 -16 14 -28 34 -28 46 0 18 6 20 75 20 83 0 88 5
60 59 -24 48 -81 56 -120 16z m95 -5 c11 -11 20 -29 20 -40 0 -19 -5 -21 -62
-18 -34 2 -63 8 -65 14 -2 6 6 23 17 37 26 32 62 35 90 7z"/>
<path d="M3220 810 c0 -55 3 -100 8 -100 4 0 7 45 7 100 0 55 -3 100 -7 100
-5 0 -8 -45 -8 -100z"/>
<path d="M3345 810 c0 -55 3 -100 8 -100 4 0 7 30 7 66 0 36 5 74 10 85 7 13
7 19 0 19 -5 0 -10 7 -10 15 0 8 -3 15 -7 15 -5 0 -8 -45 -8 -100z"/>
<path d="M3400 900 c-11 -7 -5 -8 18 -4 55 11 72 -14 72 -108 0 -45 4 -78 10
-78 6 0 10 30 10 71 0 68 -11 106 -34 121 -16 11 -58 9 -76 -2z"/>
<path d="M3623 810 c22 -55 45 -100 51 -100 7 0 26 37 42 83 17 45 35 90 39
100 4 9 3 17 -1 17 -5 0 -23 -39 -40 -87 -17 -48 -35 -88 -40 -90 -6 -2 -24
36 -41 84 -16 48 -34 88 -40 90 -6 2 8 -41 30 -97z"/>
<path d="M3855 885 c-20 -19 -25 -34 -25 -72 0 -60 20 -90 65 -99 40 -7 85 2
85 17 0 6 -6 6 -19 -1 -32 -17 -66 -11 -95 15 -14 13 -26 33 -26 45 0 18 6 20
76 20 65 0 75 2 70 16 -3 9 -6 22 -6 30 0 24 -39 54 -70 54 -19 0 -40 -9 -55
-25z m93 -1 c13 -9 22 -26 22 -40 0 -24 -2 -25 -62 -22 -34 2 -63 8 -65 14 -6
18 37 64 61 64 12 0 32 -7 44 -16z"/>
<path d="M4080 810 c0 -60 4 -100 10 -100 6 0 10 29 10 66 0 36 4 74 10 84 7
13 6 19 -6 24 -8 3 -12 10 -9 16 3 5 1 10 -4 10 -7 0 -11 -36 -11 -100z"/>
<path d="M4170 903 c49 -9 60 -29 60 -115 0 -43 3 -78 8 -78 4 0 5 41 2 90 -5
99 -12 111 -65 108 -27 -1 -28 -1 -5 -5z"/>
<path d="M4771 813 c-1 -57 3 -103 8 -103 10 0 20 162 10 170 -3 3 -9 12 -12
20 -3 8 -6 -31 -6 -87z"/>
<path d="M4855 903 c45 -11 55 -32 55 -115 0 -43 3 -78 8 -78 4 0 7 36 6 81
-1 92 -16 120 -61 118 -21 -1 -23 -3 -8 -6z"/>
<path d="M4961 901 c-8 -5 0 -8 25 -7 51 1 65 -26 62 -117 -2 -37 0 -67 5 -67
4 0 7 38 7 84 0 76 -2 86 -22 100 -25 18 -56 20 -77 7z"/>
<path d="M5202 900 c-38 -16 -55 -91 -31 -144 23 -50 112 -58 144 -13 8 12 15
43 15 70 0 78 -55 116 -128 87z m93 -25 c50 -50 18 -155 -47 -155 -13 0 -34 9
-48 20 -21 16 -25 27 -25 70 0 42 4 55 24 71 32 26 67 24 96 -6z"/>
<path d="M5486 902 c-2 -4 10 -6 27 -4 41 5 67 -22 73 -75 6 -50 -13 -85 -56
-100 -34 -12 -34 -12 -7 -12 46 -1 77 38 77 99 0 41 -5 56 -25 75 -23 24 -78
34 -89 17z"/>
<path d="M5700 810 c0 -60 4 -100 10 -100 6 0 10 40 10 100 0 60 -4 100 -10
100 -6 0 -10 -40 -10 -100z"/>
<path d="M5987 903 c-38 -10 -59 -95 -36 -146 18 -41 92 -61 129 -37 11 7 6 8
-17 4 -45 -9 -90 12 -102 46 -5 16 -7 31 -4 34 4 3 37 6 75 6 66 0 68 1 68 25
0 51 -54 83 -113 68z m75 -20 c10 -9 18 -27 18 -40 0 -22 -4 -23 -60 -23 -57
0 -60 1 -60 24 0 47 66 72 102 39z"/>
<path d="M2306 794 c-35 -34 -1 -86 54 -83 l25 2 -25 4 c-14 3 -31 10 -37 15
-19 15 -16 55 5 67 9 6 12 11 5 11 -6 0 -19 -7 -27 -16z"/>
<path d="M2962 736 c1 -10 8 -17 13 -17 15 1 12 24 -3 29 -9 3 -13 -2 -10 -12z"/>
<path d="M4520 730 c0 -11 5 -20 10 -20 6 0 10 9 10 20 0 11 -4 20 -10 20 -5
0 -10 -9 -10 -20z"/>
</g>
</svg>
